<svg xmlns="http://www.w3.org/2000/svg" width="46" height="46" viewBox="0 0 46 46">
  <g fill="none" fill-rule="evenodd">
    <path fill="#4285F4" d="M23 9.5c3.54 0 6.7 1.22 9.21 3.6l6.85-6.85C36.09 2.65 30.45 0 23 0 14.64 0 6.45 5.64 2.48 13.85l7.98 6.19C12.43 13.37 17.74 9.5 23 9.5z"></path>
    <path fill="#34A853" d="M44.5 24.5c0-1.57-.14-3.08-.39-4.5H23v9h12.65c-.55 2.93-2.2 5.41-4.68 7.07l7.19 5.58C41.94 37.55 44.5 31.49 44.5 24.5z"></path>
    <path fill="#FBBC05" d="M10.46 28.04c-1.07-3.19-1.07-6.85 0-10.04L2.48 11.8C-1.01 18.21-1.01 29.79 2.48 36.2l7.98-6.19z"></path>
    <path fill="#EA4335" d="M23 46c6.45 0 12.09-2.13 16.13-5.77l-7.19-5.58c-2.01 1.35-4.57 2.15-7.43 2.15-6.26 0-11.57-3.87-13.54-9.54l-7.98 6.19C6.45 40.36 14.64 46 23 46z"></path>
  </g>
</svg>
